<?xml version="1.0" encoding="utf-8"?>
<!-- Generator: Adobe Illustrator 17.0.0, SVG Export Plug-In . SVG Version: 6.00 Build 0)  -->
<!DOCTYPE svg PUBLIC "-//W3C//DTD SVG 1.1//EN" "http://www.w3.org/Graphics/SVG/1.1/DTD/svg11.dtd">
<svg version="1.1" id="Layer_1" xmlns="http://www.w3.org/2000/svg" xmlns:xlink="http://www.w3.org/1999/xlink" x="0px" y="0px"
	 width="48px" height="48px" viewBox="0 0 48 48" enable-background="new 0 0 48 48" xml:space="preserve">
<g>
	<path fill="#231F20" d="M18,36.137V34h2c0.553,0,1-0.448,1-1v-4c0-0.552-0.447-1-1-1H9c-0.553,0-1,0.448-1,1v4c0,0.552,0.447,1,1,1
		h1v2.142c-6.185,1.085-9.422,4.619-9.888,10.783c-0.021,0.277,0.074,0.551,0.264,0.755C0.565,47.884,0.831,48,1.109,48h26.15
		c0.278,0,0.544-0.116,0.733-0.321c0.19-0.204,0.285-0.477,0.264-0.755C27.789,40.753,24.431,37.217,18,36.137z M2.223,46
		c0.689-4.798,3.476-7.284,8.909-8.009C11.629,37.925,12,37.501,12,37v-4c0-0.552-0.447-1-1-1h-1v-2h9v2h-2c-0.553,0-1,0.448-1,1v4
		c0,0.503,0.374,0.928,0.872,0.992c5.668,0.729,8.569,3.215,9.272,8.008H2.223z"/>
	<path fill="#231F20" d="M46.707,0.293c-0.002-0.002-0.005-0.003-0.007-0.004c-0.003-0.003-0.004-0.007-0.007-0.011
		c-0.06-0.057-0.132-0.088-0.201-0.128c-0.042-0.024-0.079-0.061-0.124-0.079c-0.071-0.028-0.145-0.032-0.22-0.043
		c-0.053-0.008-0.104-0.028-0.158-0.027c-0.067,0.001-0.131,0.024-0.197,0.038c-0.06,0.013-0.121,0.015-0.178,0.039
		c-0.064,0.027-0.117,0.076-0.175,0.117c-0.049,0.034-0.104,0.054-0.147,0.098c-0.002,0.002-0.003,0.006-0.005,0.008
		c-0.003,0.003-0.006,0.003-0.009,0.006L40,5.806V1c0-0.35-0.183-0.674-0.483-0.856c-0.297-0.181-0.671-0.193-0.981-0.03
		c-2.11,1.105-5.436,3.356-8.442,6.362c-5.853,5.853-8.457,12.605-6.435,16.123c-0.001,0.067,0.018,0.131,0.03,0.198l-2.41,2.511
		c-0.382,0.399-0.369,1.032,0.029,1.414C21.501,26.908,21.751,27,22,27c0.263,0,0.525-0.103,0.722-0.308l2.411-2.511
		c0.943,0.514,2.058,0.783,3.302,0.783c3.386,0,7.632-1.846,11.347-5.225c0.306-0.278,0.409-0.716,0.26-1.101
		s-0.52-0.639-0.933-0.639h-8.042l1.921-2.001C32.993,15.998,32.996,16,33,16h9.109c0.553,0,1-0.448,1-1s-0.447-1-1-1h-7.203
		l1.948-2.029C36.904,11.978,36.948,12,37,12h8.019c0.358,0,0.689-0.192,0.867-0.502C48.507,6.926,48.837,2.423,46.707,0.293z
		 M31.508,7.891c2.206-2.206,4.633-4.002,6.492-5.16v5.158L25.206,21.217C24.239,18.628,26.306,13.093,31.508,7.891z M36.275,19.999
		c-3.752,2.65-7.47,3.447-9.682,2.661l2.554-2.661H36.275z M44.429,10h-5.683l7.08-7.375C46.442,4.304,45.936,7.161,44.429,10z"/>
</g>
</svg>
