<?xml version="1.0" encoding="utf-8"?>
<!-- Generator: Adobe Illustrator 17.0.0, SVG Export Plug-In . SVG Version: 6.00 Build 0)  -->
<!DOCTYPE svg PUBLIC "-//W3C//DTD SVG 1.1//EN" "http://www.w3.org/Graphics/SVG/1.1/DTD/svg11.dtd">
<svg version="1.1" id="Layer_1" xmlns="http://www.w3.org/2000/svg" xmlns:xlink="http://www.w3.org/1999/xlink" x="0px" y="0px"
	 width="48px" height="48px" viewBox="0 0 48 48" enable-background="new 0 0 48 48" xml:space="preserve">
<g>
	<polygon fill="#231F20" points="16,0 16,9 18,9 18,2 46,2 46,18 39.586,18 33,24.586 33,18 28,18 28,20 31,20 31,29.414 40.414,20 
		48,20 48,0 	"/>
	<path fill="#231F20" d="M28.22,38.619L21,36.033v-3.446c2.235-1.905,3.697-4.993,3.698-8.483c0-5.775-3.991-10.473-8.895-10.473
		c-4.905,0-8.895,4.699-8.895,10.473c0,3.692,1.635,6.937,4.092,8.803v3.126L3.78,38.62C1.519,39.429,0,41.6,0,44.023V48h32v-3.977
		C32,41.599,30.48,39.428,28.22,38.619z M15.803,15.632c3.313,0,6.087,2.889,6.745,6.725c-2.11,0.358-3.393-0.353-4.669-2.585
		l-0.909-1.589l-0.846,1.623c-0.685,1.313-3.096,2.509-5.059,2.509c-0.71,0-1.328-0.105-1.929-0.328
		C9.904,18.338,12.597,15.632,15.803,15.632z M8.909,24.105c0-0.033,0.004-0.065,0.004-0.098c0.679,0.199,1.383,0.308,2.152,0.308
		c2.13,0,4.458-0.973,5.871-2.336c1.269,1.677,2.761,2.474,4.639,2.474c0.355,0,0.729-0.038,1.113-0.094
		c-0.111,4.555-3.152,8.221-6.885,8.221C12.002,32.58,8.909,28.778,8.909,24.105z M30,46H2v-1.977c0-1.581,0.986-2.996,2.454-3.521
		L13,37.441v-3.403c0.882,0.346,1.823,0.541,2.803,0.541c1.128,0,2.203-0.258,3.197-0.711v3.573l8.546,3.062
		C29.014,41.028,30,42.442,30,44.023V46z"/>
	<rect x="36" y="10" fill="#231F20" width="2" height="2"/>
	<rect x="31" y="10" fill="#231F20" width="2" height="2"/>
	<rect x="26" y="10" fill="#231F20" width="2" height="2"/>
</g>
</svg>
