<?xml version="1.0" ?><!DOCTYPE svg  PUBLIC '-//W3C//DTD SVG 1.1//EN'  'http://www.w3.org/Graphics/SVG/1.1/DTD/svg11.dtd'><svg enable-background="new 0 0 48 48" height="48px" version="1.1" viewBox="0 0 48 48" width="48px" xml:space="preserve" xmlns="http://www.w3.org/2000/svg" xmlns:xlink="http://www.w3.org/1999/xlink"><g id="Expanded"><g><g><path d="M24,14c-3.86,0-7-3.141-7-7s3.14-7,7-7s7,3.141,7,7S27.86,14,24,14z M24,2c-2.757,0-5,2.243-5,5s2.243,5,5,5s5-2.243,5-5     S26.757,2,24,2z"/></g><g><path d="M27,38h-6c-0.552,0-1-0.447-1-1v-7.967C15.586,26.717,14,20.65,14,16c0-0.553,0.448-1,1-1h18c0.552,0,1,0.447,1,1     c0,4.65-1.586,10.717-6,13.033V37C28,37.553,27.552,38,27,38z M22,36h4v-7.6c0-0.402,0.241-0.766,0.611-0.922     c3.866-1.63,5.156-6.954,5.359-10.479H16.03c0.203,3.524,1.493,8.849,5.359,10.479C21.759,27.635,22,27.998,22,28.4V36z"/></g><g><path d="M24,43c-5.571,0-15-0.948-15-4.5c0-1.768,2.292-3.064,6.814-3.855c0.551-0.091,1.062,0.27,1.157,0.813     s-0.269,1.062-0.812,1.157c-4.014,0.701-5.092,1.683-5.161,1.907C11.268,39.358,15.973,41,24,41s12.732-1.642,13.002-2.522     c-0.069-0.179-1.142-1.156-5.136-1.858c-0.544-0.096-0.907-0.614-0.812-1.158c0.095-0.544,0.608-0.904,1.158-0.812     C36.717,35.44,39,36.736,39,38.5C39,42.052,29.571,43,24,43z"/></g><g><path d="M24,48C8.412,48,0,43.363,0,39c0-4.752,8.198-7.504,15.871-8.495c0.542-0.066,1.048,0.315,1.12,0.864     c0.071,0.548-0.316,1.049-0.864,1.12C6.853,33.687,2,36.671,2,39c0,3.311,9.035,7,22,7s22-3.689,22-7     c0-2.329-4.851-5.312-14.122-6.51c-0.548-0.071-0.935-0.572-0.864-1.12c0.07-0.549,0.575-0.925,1.12-0.864     C39.804,31.497,48,34.249,48,39C48,43.363,39.588,48,24,48z"/></g></g></g></svg>