<svg height="496pt" viewBox="0 0 496 496" width="496pt" xmlns="http://www.w3.org/2000/svg"><path d="m488 248c0 132.546875-107.453125 240-240 240s-240-107.453125-240-240 107.453125-240 240-240 240 107.453125 240 240zm0 0" fill="#85d3c1"/><path d="m408 368v16h-48l-.640625.160156c-1.199219-7.839844-4.160156-15.28125-8.558594-21.921875l-6.800781-10.238281v-32h16c26.480469 0 48 21.519531 48 48zm0 0" fill="#ff958a"/><path d="m360 392.558594v.800781c0 14.480469-5.761719 28.402344-16 38.640625v32l1.441406 3.28125c-29.761718 13.359375-62.722656 20.71875-97.441406 20.71875-37.359375 0-72.640625-8.558594-104.160156-23.761719l.160156-.238281v-32c-10.238281-10.238281-16-24.160156-16-38.640625v-.800781c0-2.796875.238281-5.679688.640625-8.398438 1.199219-7.839844 4.160156-15.28125 8.558594-21.921875l6.800781-10.238281v-32l32-8 14.800781 19.679688c5.917969 7.921874 14.558594 13.359374 24.238281 15.359374 15.28125 3.039063 27.359376 14.5625 31.121094 29.601563l1.839844 7.359375c-8.800781 0-16 10.71875-16 24s7.199219 24 16 24 16-10.71875 16-24-7.199219-24-16-24l1.839844-7.359375c3.761718-15.039063 15.839844-26.5625 31.121094-29.601563 9.679687-2 18.320312-7.4375 24.238281-15.359374l13.519531-18 25.28125 6.320312v32l6.800781 10.238281c4.398438 6.640625 7.359375 14.082031 8.558594 21.921875.402344 2.71875.640625 5.601563.640625 8.398438zm0 0" fill="#ff958a"/><path d="m144 320v32l-6.800781 10.238281c-4.398438 6.640625-7.359375 14.082031-8.558594 21.921875l-.640625-.160156h-48v-16c0-26.480469 21.519531-48 48-48zm0 0" fill="#ff958a"/><path d="m264 408c0-13.253906-7.164062-24-16-24s-16 10.746094-16 24 7.164062 24 16 24 16-10.746094 16-24zm0 0" fill="#f9d48a"/><g fill="#f5f7fa"><path d="m128 384 .640625.160156c-.402344 2.71875-.640625 5.601563-.640625 8.398438v.800781c0 14.480469 5.761719 28.402344 16 38.640625v32l-.160156.238281c-17.519532-8.476562-33.917969-18.957031-48.71875-31.277343l.878906-.960938v-48zm0 0"/><path d="m392 384v56c-14.398438 10.800781-30 20-46.558594 27.28125l-1.441406-3.28125v-32c10.238281-10.238281 16-24.160156 16-38.640625v-.800781c0-2.796875-.238281-5.679688-.640625-8.398438l.640625-.160156zm0 0"/><path d="m249.839844 376.640625-1.839844 7.359375-1.839844-7.359375c-3.761718-15.039063-15.839844-26.5625-31.121094-29.601563-9.679687-2-18.320312-7.4375-24.238281-15.359374l-14.800781-19.679688 32-8s16 16 40 16 32-16 32-16l38.71875 9.679688-13.519531 18c-5.917969 7.921874-14.558594 13.359374-24.238281 15.359374-15.28125 3.039063-27.359376 14.5625-31.121094 29.601563zm0 0"/><path d="m280 276.398438v27.601562s-8 16-32 16-40-16-40-16v-28.878906l1.199219-2.082032c11.519531 6.480469 24.722656 10.082032 38.800781 10.082032 11.359375 0 22.238281-2.402344 32-6.722656zm0 0"/></g><path d="m435.121094 239.921875 4.878906 8.078125h-32c-5.039062 10.078125-12.320312 18.558594-21.121094 25.121094-8.800781 6.480468-19.039062 10.878906-30.160156 12.800781l-12.71875 2.078125c10.558594-31.761719 16-65.121094 16-98.558594v-53.441406c0-45.039062-26.640625-83.921875-65.039062-101.679688l1.039062-2.320312 1.359375-1.359375c4.5625-4.5625 9.601563-8.480469 14.960937-11.679687 11.917969-7.121094 25.601563-10.960938 39.679688-10.960938h2.800781c42.640625 0 77.199219 34.558594 77.199219 77.199219 0 3.601562-.238281 7.199219-.71875 10.722656-.480469 3.519531-1.203125 7.039063-2.242188 10.476563l-7.839843 27.523437c-3.4375 12-5.199219 24.398437-5.199219 36.878906 0 24.320313 6.640625 48.238281 19.121094 69.121094zm0 0" fill="#f9d48a"/><path d="m256.558594 120.558594c-5.359375 8.082031-13.277344 14.320312-22.878906 17.519531-11.757813 3.921875-23.917969 5.921875-36.238282 5.921875h-29.441406v8c-17.679688 0-32 14.320312-32 32v-48c0-30.878906 12.558594-58.878906 32.800781-79.199219 20.320313-20.242187 48.320313-32.800781 79.199219-32.800781 16.800781 0 32.71875 3.679688 46.960938 10.320312 38.398437 17.757813 65.039062 56.640626 65.039062 101.679688v48c0-17.679688-14.320312-32-32-32v-8h-14.078125c-21.441406 0-42.082031-8.398438-57.363281-23.441406zm0 0" fill="#f9d48a"/><path d="m328 203.121094v-51.121094c17.679688 0 32 14.320312 32 32s-14.320312 32-32 32l-1.039062-.160156c.71875-4.160156 1.039062-8.398438 1.039062-12.71875zm0 0" fill="#f5f7fa"/><path d="m280 276.398438c-9.761719 4.320312-20.640625 6.722656-32 6.722656-14.078125 0-27.28125-3.601563-38.800781-10.082032-6.558594-3.597656-12.480469-8.078124-17.757813-13.359374-11.679687-11.601563-19.761718-26.800782-22.402344-43.839844-.71875-4.160156-1.039062-8.398438-1.039062-12.71875v-59.121094h29.441406c12.320313 0 24.480469-2 36.238282-5.921875 9.601562-3.199219 17.519531-9.4375 22.878906-17.519531 15.28125 15.042968 35.921875 23.441406 57.363281 23.441406h14.078125v59.121094c0 4.320312-.320312 8.558594-1.039062 12.71875-4.320313 27.28125-22.402344 49.921875-46.960938 60.558594zm0 0" fill="#f5f7fa"/><path d="m168 203.121094c0 4.320312.320312 8.558594 1.039062 12.71875l-1.039062.160156c-17.679688 0-32-14.320312-32-32s14.320312-32 32-32zm0 0" fill="#f5f7fa"/><path d="m216 184c0 4.417969-3.582031 8-8 8s-8-3.582031-8-8 3.582031-8 8-8 8 3.582031 8 8zm0 0" fill="#232323"/><path d="m296 184c0 4.417969-3.582031 8-8 8s-8-3.582031-8-8 3.582031-8 8-8 8 3.582031 8 8zm0 0" fill="#232323"/><path d="m248 240c-8.824219 0-16-7.175781-16-16h-16c0 17.648438 14.351562 32 32 32s32-14.351562 32-32h-16c0 8.824219-7.175781 16-16 16zm0 0" fill="#232323"/><path d="m439.929688 90.929688-.34375.277343c.132812-2.007812.414062-4 .414062-6.023437 0-46.96875-38.214844-85.183594-85.183594-85.183594h-2.839844c-13.367187 0-26.234374 3.128906-37.855468 8.910156-21.449219-5.910156-43.695313-8.910156-66.121094-8.910156-136.742188 0-248 111.246094-248 248s111.257812 248 248 248 248-111.246094 248-248c0-57.152344-19.910156-112.9375-56.070312-157.070312zm-85.113282-74.929688c38.144532 0 69.183594 31.039062 69.183594 69.183594 0 6.433594-.894531 12.832031-2.664062 19.015625l-7.863282 27.511719c-3.632812 12.722656-5.472656 25.863281-5.472656 39.097656 0 24.238281 6.191406 48.0625 17.960938 69.191406h-22.90625l-2.207032 4.425781c-8.863281 17.726563-25.816406 30.261719-45.351562 33.550781 8.304687-28.792968 12.503906-58.519531 12.503906-88.570312v-53.40625c0-44.433594-24.265625-83.289062-60.238281-104.039062 12.398437-10.335938 27.871093-15.960938 44.214843-15.960938zm-106.816406 376c3.265625 0 8 6.230469 8 16s-4.734375 16-8 16-8-6.230469-8-16 4.734375-16 8-16zm0-31c-6.945312-11.089844-18.199219-19.199219-31.375-21.832031-7.777344-1.550781-14.679688-5.902344-19.441406-12.246094l-7.550782-10.074219 16.289063-4.070312c6.558594 5.238281 21.71875 15.222656 42.078125 15.222656 19.265625 0 30.128906-8.863281 35.304688-14.921875l21.800781 5.449219-6.296875 8.382812c-4.761719 6.347656-11.664063 10.699219-19.441406 12.25-13.167969 2.640625-24.429688 10.75-31.367188 21.839844zm24-59.351562c-2.207031 3.023437-9.054688 10.351562-24 10.351562-15.449219 0-27.222656-7.878906-32-11.664062v-15.296876c9.9375 3.898438 20.703125 6.113282 32 6.113282 8.328125 0 16.359375-1.242188 24-3.410156zm-24-26.496094c-39.695312 0-72-32.296875-72-72v-51.152344h21.398438c13.210937 0 26.257812-2.121094 38.769531-6.289062 8.351562-2.78125 15.585937-7.550782 21.359375-13.632813 15.9375 12.890625 35.625 19.921875 56.410156 19.921875h6.0625v51.152344c0 39.695312-32.304688 72-72 72zm-87.824219-68.578125c-9.382812-3.261719-16.175781-12.09375-16.175781-22.574219 0-10.414062 6.710938-19.214844 16-22.527344v41.671875c0 1.160157.128906 2.289063.175781 3.429688zm191.824219-54.367188c-4.671875-3.535156-10.054688-6.183593-16-7.390625v-32.816406h-16v24h-6.054688c-17.472656 0-34.007812-6.039062-47.265624-17.105469 3.390624-6.984375 5.320312-14.75 5.320312-22.894531h-16c0 15.695312-10 29.566406-24.886719 34.527344-10.890625 3.632812-22.226562 5.472656-33.714843 5.472656h-21.398438v-24h-16v32.808594c-5.945312 1.214844-11.328125 3.855468-16 7.390625v-16.199219c0-57.34375 46.65625-104 104-104s104 46.65625 104 104zm-16 50.945313v-41.671875c9.289062 3.3125 16 12.113281 16 22.527343 0 10.480469-6.792969 19.3125-16.175781 22.578126.046875-1.152344.175781-2.28125.175781-3.433594zm-320 44.847656c0-127.921875 104.070312-232 232-232 16.214844 0 32.328125 1.71875 48.070312 5.03125-1.285156 1.128906-2.597656 2.214844-3.832031 3.425781-13.695312-5.457031-28.621093-8.457031-44.238281-8.457031-66.167969 0-120 53.832031-120 120v48c0 20.160156 15.039062 36.710938 34.457031 39.441406 5.277344 22.230469 18.949219 41.214844 37.542969 53.367188v20.945312l-57 14.246094h-15c-30.878906 0-56 25.128906-56 56v24h16v23.761719c-44.3125-42.28125-72-101.832031-72-167.761719zm120 203.089844c-11.28125-6.25-21.96875-13.425782-32-21.394532v-37.695312h16.039062c0 .183594-.039062.359375-.039062.535156v.832032c0 15.59375 5.65625 30.3125 16 41.816406zm-5.480469-93.289063c-3.75 5.625-6.441406 11.773438-8.199219 18.199219h-34.320312v-8c0-22.054688 17.945312-40 40-40h8v21.574219zm21.480469 101.320313v-30.433594l-2.34375-2.34375c-8.808594-8.808594-13.65625-20.511719-13.65625-32.96875v-.832031c0-9.230469 2.703125-18.175781 7.832031-25.863281l8.167969-12.253907v-28.167969l20.792969-5.203124 11.589843 15.457031c7.128907 9.503906 17.464844 16.015625 29.105469 18.34375 12.128907 2.433593 21.902344 11.746093 24.910157 23.753906-8.542969 4.847656-14.398438 16.03125-14.398438 29.390625 0 17.945312 10.542969 32 24 32s24-14.054688 24-32c0-13.367188-5.855469-24.550781-14.398438-29.398438 3.007813-12 12.78125-21.320312 24.910157-23.753906 11.648437-2.328125 21.984375-8.832031 29.105469-18.34375l10.328124-13.769531 14.054688 3.511719v28.167968l8.167969 12.25c5.128906 7.695313 7.832031 16.640626 7.832031 25.871094v.832032c0 12.457031-4.847656 24.167968-13.65625 32.96875l-2.34375 2.351562v33.929688c-27.152344 11.175781-56.863281 17.382812-88 17.382812-34.230469 0-66.71875-7.511719-96-20.878906zm208-131.121094c22.054688 0 40 17.945312 40 40v8h-34.320312c-1.757813-6.425781-4.449219-12.574219-8.199219-18.199219l-5.480469-8.226562v-21.574219zm7.960938 64h16.039062v43.785156c-10.089844 7.328125-20.785156 13.847656-32 19.503906v-20.105468c10.34375-11.503906 16-26.214844 16-41.816406v-.832032c0-.175781-.039062-.351562-.039062-.535156zm32.039062 31.046875v-31.046875h16v-24c0-30.871094-25.121094-56-56-56h-15l-57-14.246094v-16.3125c22.617188-11.609375 39.535156-32.6875 45.542969-57.992187 6.304687-.890625 12.160156-3.113281 17.167969-6.585938-2.109376 23.3125-6.863282 46.296875-14.304688 68.617188l-4.199219 12.609375 25.824219-4.304688c22.953125-3.832031 43.074219-17.808594 54.738281-37.777344h41.359375l-12.128906-20.222656c-11.777344-19.625-18-42.097656-18-64.976562 0-11.738282 1.640625-23.410156 4.855469-34.695313l6.886719-24.097656c28.53125 39.382813 44.257812 87.097656 44.257812 135.984375 0 69.816406-31.039062 132.480469-80 175.046875zm0 0" fill="#232323"/></svg>