<?xml version="1.0"?>
<svg xmlns="http://www.w3.org/2000/svg" height="512px" viewBox="0 0 496 496" width="512px"><path d="m256 424c0 4.417969-3.582031 8-8 8s-8-3.582031-8-8 3.582031-8 8-8 8 3.582031 8 8zm0 0" fill="#FFFFFF"/><path d="m160 456c0 4.417969-3.582031 8-8 8s-8-3.582031-8-8 3.582031-8 8-8 8 3.582031 8 8zm0 0" fill="#FFFFFF"/><path d="m352 456c0 4.417969-3.582031 8-8 8s-8-3.582031-8-8 3.582031-8 8-8 8 3.582031 8 8zm0 0" fill="#FFFFFF"/><path d="m240 304h16v96h-16zm0 0" fill="#FFFFFF"/><path d="m152.171875 430.3125 24-112 15.636719 3.351562-24 112zm0 0" fill="#FFFFFF"/><path d="m304.167969 321.683594 15.636719-3.351563 23.996093 112.003907-15.636719 3.347656zm0 0" fill="#FFFFFF"/><path d="m459.71875 80c-9.6875 0-18.808594 3.777344-25.65625 10.625l-2.0625 2.0625-2.054688-2.046875c-1.9375-1.945313-4.113281-3.570313-6.425781-5.015625.296875-3.730469.480469-7.464844.480469-11.226562 0-24.007813-15.273438-45.320313-38.007812-53.03125l-62.984376-21.367188h-148.304687l-64.414063 21.472656c-22.898437 7.632813-38.289062 28.984375-38.289062 53.128906 0 25.917969 7.046875 51.367188 20.382812 73.589844l7.089844 11.808594h62.023438l6.257812 46.695312-100.027344 207.746094c-2.4375 5.054688-3.726562 10.695313-3.726562 16.320313 0 16.421875 10.542969 30.8125 26.230469 35.8125 8.34375 2.65625 14.511719 7.144531 21.058593 11.898437 11.296876 8.214844 24.101563 17.527344 48.703126 17.527344 24.582031 0 37.390624-9.3125 48.679687-17.527344 10.671875-7.769531 19.886719-14.472656 39.28125-14.472656 19.40625 0 28.632813 6.703125 39.3125 14.472656 11.292969 8.214844 24.109375 17.527344 48.710937 17.527344 24.609376 0 37.414063-9.3125 48.710938-17.527344 6.542969-4.761718 12.726562-9.25 21.082031-11.90625 15.6875-5 26.230469-19.390625 26.230469-35.804687 0-5.625-1.289062-11.265625-3.71875-16.3125l-100.035156-207.753907 6.257812-46.695312h62.03125l.058594-.097656 35.40625 35.410156 53.375-53.367188c6.847656-6.855468 10.625-15.960937 10.625-25.65625 0-20.007812-16.273438-36.289062-36.28125-36.289062zm-156.359375-64c-3.902344 27.097656-27.207031 48-55.359375 48s-51.457031-20.902344-55.359375-48zm-47.359375 63.527344v45.160156l-8 8-8-8v-45.160156c2.632812.296875 5.296875.472656 8 .472656s5.367188-.175781 8-.472656zm-147.472656 64.472656-2.429688-4.039062c-11.839844-19.738282-18.097656-42.335938-18.097656-65.359376 0-17.25 10.992188-32.496093 27.351562-37.953124l8.960938-2.984376 11.847656 20.734376c10.65625 18.648437 17.144532 38.929687 19.304688 60.554687l3.886718 29.046875zm221.855468 104 83.480469 173.382812c1.394531 2.90625 2.136719 6.144532 2.136719 9.378907 0 9.421875-6.0625 17.6875-15.089844 20.558593-10.8125 3.441407-18.34375 8.910157-25.628906 14.207032-10.679688 7.769531-19.898438 14.472656-39.304688 14.472656-19.402343 0-28.625-6.703125-39.304687-14.472656-11.296875-8.214844-24.113281-17.527344-48.71875-17.527344-24.59375 0-37.402344 9.3125-48.695313 17.527344-10.664062 7.769531-19.882812 14.472656-39.265624 14.472656-19.398438 0-28.617188-6.703125-39.289063-14.472656-7.277344-5.296875-14.808594-10.765625-25.613281-14.207032-9.027344-2.871093-15.089844-11.136718-15.089844-20.558593 0-3.234375.742188-6.472657 2.144531-9.378907l83.472657-173.382812zm-104.910156-16h-52.152344l7.703126-16h44.449218c-.898437 2.511719-1.472656 5.183594-1.472656 8s.574219 5.488281 1.472656 8zm14.527344-8c0-4.40625 3.585938-8 8-8s8 3.59375 8 8-3.585938 8-8 8-8-3.59375-8-8zm30.527344-8h44.449218l7.703126 16h-52.152344c.898437-2.511719 1.472656-5.183594 1.472656-8s-.574219-5.488281-1.472656-8zm54.152344-103.167969-11.679688 87.167969h-130l-11.648438-86.902344c-2.359374-23.609375-9.527343-46.027344-21.304687-66.632812l-10.261719-17.960938 36.726563-12.238281c3.175781 27.636719 22.0625 50.511719 47.488281 59.535156v55.511719l24 24 24-24v-55.511719c25.503906-9.058593 44.441406-32.039062 47.527344-59.800781h.839844l36.007812 12.214844-10.421875 18.25c-11.777344 20.597656-18.945313 43.023437-21.273437 66.367187zm65.214843 27.128907-2.421875 4.039062h-50.824218l3.925781-29.3125c2.136719-21.359375 8.617187-41.648438 19.273437-60.289062l11.96875-20.941407 9.039063 3.0625c16.234375 5.511719 27.144531 20.738281 27.144531 38.082031 0 23.023438-6.257812 45.621094-18.105469 65.359376zm84.167969-9.328126-42.0625 42.054688-27-27c7.433594-12.960938 12.792969-26.945312 15.863281-41.503906l11.136719 11.128906 13.375-13.367188c3.832031-3.832031 8.929688-5.945312 14.34375-5.945312 11.175781 0 20.28125 9.105469 20.28125 20.289062 0 5.414063-2.113281 10.511719-5.9375 14.34375zm0 0" fill="#FFFFFF"/><path d="m117.375 277.945312c6.847656-6.855468 10.625-15.960937 10.625-25.65625 0-20.007812-16.273438-36.289062-36.28125-36.289062-9.6875 0-18.808594 3.777344-25.65625 10.625l-2.0625 2.0625-2.0625-2.054688c-6.847656-6.855468-15.96875-10.632812-25.65625-10.632812-20.007812 0-36.28125 16.28125-36.28125 36.289062 0 9.695313 3.777344 18.808594 10.625 25.65625l53.375 53.367188zm-101.375-25.65625c0-11.183593 9.105469-20.289062 20.28125-20.289062 5.414062 0 10.503906 2.113281 14.34375 5.945312l13.375 13.367188 13.375-13.367188c3.832031-3.832031 8.929688-5.945312 14.34375-5.945312 11.175781 0 20.28125 9.105469 20.28125 20.289062 0 5.421876-2.113281 10.511719-5.9375 14.34375l-42.0625 42.054688-42.0625-42.054688c-3.824219-3.832031-5.9375-8.929687-5.9375-14.34375zm0 0" fill="#FFFFFF"/></svg>
